<svg width="106" height="106" viewBox="0 0 106 106" fill="none" xmlns="http://www.w3.org/2000/svg">
<path d="M75.1839 22.8335H72.0268V29.1048C72.0268 31.27 70.2656 33.0313 68.1004 33.0313C65.9358 33.0313 64.1746 31.27 64.1746 29.1048V22.8335H61.082V29.1048C61.082 31.27 59.3207 33.0313 57.1555 33.0313C54.9909 33.0313 53.2297 31.27 53.2297 29.1048V22.8335H50.1365V29.1048C50.1365 31.27 48.3752 33.0313 46.21 33.0313C44.0454 33.0313 42.2841 31.27 42.2841 29.1048V22.8335H39.0608V28.6724C39.0608 30.8376 37.2996 32.5988 35.1344 32.5988C32.9698 32.5988 31.2085 30.8376 31.2085 28.6724V22.8335H30.0116C26.0498 22.8335 22.8271 26.0562 22.8271 30.0174V77.2737C22.8271 81.2354 26.0498 84.4581 30.0116 84.4581H75.1833C79.1444 84.4581 82.3671 81.2354 82.3671 77.2737V30.0174C82.3671 26.0568 79.1444 22.8335 75.1839 22.8335ZM75.1839 82.5996H30.0123C27.0758 82.5996 24.6863 80.2108 24.6863 77.2737V46.0125C25.7866 47.8023 27.7572 48.9986 30.0123 48.9986H75.1839C77.4383 48.9986 79.4083 47.801 80.5092 46.0125V77.2737C80.5086 80.2108 78.1197 82.5996 75.1839 82.5996Z" fill="#ECECEC"/>
<path d="M33.0669 28.6724C33.0669 29.813 33.9943 30.7404 35.1342 30.7404C36.2747 30.7404 37.2022 29.813 37.2022 28.6724V17.9877C37.2022 16.8478 36.2747 15.9204 35.1342 15.9204C33.9943 15.9204 33.0669 16.8478 33.0669 17.9877V28.6724Z" fill="#ECECEC"/>
<path d="M44.1426 29.1046C44.1426 30.2451 45.07 31.1725 46.2099 31.1725C47.3504 31.1725 48.2778 30.2451 48.2778 29.1046V18.4199C48.2778 17.28 47.3504 16.3525 46.2099 16.3525C45.07 16.3525 44.1426 17.28 44.1426 18.4199V29.1046Z" fill="#ECECEC"/>
<path d="M55.0884 29.1046C55.0884 30.2451 56.0158 31.1725 57.1557 31.1725C58.2962 31.1725 59.2236 30.2451 59.2236 29.1046V18.4199C59.2236 17.28 58.2962 16.3525 57.1557 16.3525C56.0158 16.3525 55.0884 17.28 55.0884 18.4199V29.1046Z" fill="#ECECEC"/>
<path d="M66.0332 29.1046C66.0332 30.2451 66.9606 31.1725 68.1005 31.1725C69.2411 31.1725 70.1684 30.2451 70.1684 29.1046V18.4199C70.1684 17.28 69.2411 16.3525 68.1005 16.3525C66.9606 16.3525 66.0332 17.28 66.0332 18.4199V29.1046Z" fill="#ECECEC"/>
<path d="M51.0935 54.2114H45.0371V60.2727H51.0935V54.2114Z" fill="#ECECEC"/>
<path d="M59.8238 54.2114H53.7681V60.2727H59.8238V54.2114Z" fill="#ECECEC"/>
<path d="M67.6729 54.2114H61.6172V60.2727H67.6729V54.2114Z" fill="#ECECEC"/>
<path d="M76.403 54.2114H70.3467V60.2727H76.403V54.2114Z" fill="#ECECEC"/>
<path d="M51.0935 62.811H45.0371V68.8723H51.0935V62.811Z" fill="#ECECEC"/>
<path d="M59.8238 62.811H53.7681V68.8723H59.8238V62.811Z" fill="#ECECEC"/>
<path d="M67.6729 62.811H61.6172V68.8723H67.6729V62.811Z" fill="#ECECEC"/>
<path d="M76.403 62.811H70.3467V68.8723H76.403V62.811Z" fill="#ECECEC"/>
<path d="M51.0935 71.4111H45.0371V77.4724H51.0935V71.4111Z" fill="#ECECEC"/>
<path d="M42.2341 62.811H36.1777V68.8723H42.2341V62.811Z" fill="#ECECEC"/>
<path d="M42.2341 71.4111H36.1777V77.4724H42.2341V71.4111Z" fill="#ECECEC"/>
<path d="M34.1549 62.811H28.0991V68.8723H34.1549V62.811Z" fill="#ECECEC"/>
<path d="M34.1549 71.4111H28.0991V77.4724H34.1549V71.4111Z" fill="#ECECEC"/>
<path d="M59.8238 71.4111H53.7681V77.4724H59.8238V71.4111Z" fill="#ECECEC"/>
<path d="M67.6729 71.4111H61.6172V77.4724H67.6729V71.4111Z" fill="#ECECEC"/>
<path d="M76.403 71.4111H70.3467V77.4724H76.403V71.4111Z" fill="#ECECEC"/>
<path d="M52.5953 0C23.5941 0 0 23.5941 0 52.5953C0 81.5964 23.5941 105.19 52.5953 105.19C81.5964 105.19 105.191 81.5964 105.191 52.5953C105.191 23.5941 81.5964 0 52.5953 0ZM52.5953 103.333C24.6188 103.333 1.85853 80.5724 1.85853 52.5959C1.85853 24.6194 24.6188 1.85916 52.5953 1.85916C80.5717 1.85916 103.332 24.6194 103.332 52.5959C103.332 80.5724 80.5717 103.333 52.5953 103.333Z" fill="#ECECEC"/>
</svg>
