<svg width="108" height="108" viewBox="0 0 108 108" fill="none" xmlns="http://www.w3.org/2000/svg">
<path d="M57.0985 87.9094C55.2722 87.9094 53.5735 87.3642 52.1456 86.4355C50.5807 87.7 48.5933 88.4614 46.4293 88.4614C45.7968 88.4614 45.1798 88.3963 44.5838 88.273C44.5373 88.6032 44.5051 88.9384 44.5051 89.2816C44.5051 93.2824 47.76 96.5373 51.7608 96.5373C55.7616 96.5373 59.0166 93.2824 59.0166 89.2816C59.0166 88.7513 58.9558 88.2359 58.8474 87.7371C58.2812 87.8474 57.6976 87.9094 57.0985 87.9094Z" fill="#ECECEC"/>
<path d="M53.522 0C24.0098 0 0 24.0098 0 53.522C0 83.0343 24.0098 107.045 53.522 107.045C83.0343 107.045 107.044 83.0343 107.044 53.522C107.044 24.0098 83.0343 0 53.522 0ZM53.522 105.186C25.0351 105.186 1.85853 82.0096 1.85853 53.5214C1.85853 25.0344 25.0351 1.85791 53.522 1.85791C82.009 1.85791 105.186 25.0338 105.186 53.5214C105.186 82.0096 82.0096 105.186 53.522 105.186Z" fill="#ECECEC"/>
<path d="M59.5357 47.6639C60.1627 47.9811 60.7506 48.3621 61.2846 48.8094C62.8681 47.4837 64.905 46.682 67.1266 46.682C67.2468 46.682 67.3639 46.695 67.4828 46.7C67.4828 46.6963 67.4834 46.6925 67.4834 46.6888C67.4834 42.688 64.2285 39.4331 60.2277 39.4331C59.0327 39.4331 57.907 39.7292 56.9121 40.2428C58.565 41.8938 59.5896 44.1742 59.5896 46.6888C59.5896 47.019 59.5698 47.3436 59.5357 47.6639Z" fill="#ECECEC"/>
<path d="M34.0117 46.6819C36.232 46.6819 38.2684 47.4823 39.8512 48.8068C40.3369 48.401 40.8647 48.0454 41.4279 47.7456C41.3876 47.398 41.3616 47.0474 41.3616 46.6893C41.3616 44.5563 42.1038 42.5962 43.336 41.0418C42.0914 40.0382 40.511 39.4336 38.7918 39.4336C34.791 39.4336 31.5361 42.6885 31.5361 46.6893C31.5361 46.8039 31.5485 46.9148 31.5535 47.0288C32.3365 46.8083 33.1586 46.6819 34.0117 46.6819Z" fill="#ECECEC"/>
<path d="M43.2368 47.0266C44.0187 46.8073 44.8389 46.6815 45.6901 46.6815C47.4842 46.6815 49.1544 47.2099 50.5663 48.1089C51.9781 47.2099 53.6483 46.6815 55.4424 46.6815C56.2286 46.6815 56.9881 46.7924 57.716 46.9801C57.7198 46.8828 57.7309 46.7868 57.7309 46.6883C57.7309 42.6875 54.476 39.4326 50.4752 39.4326C46.4744 39.4326 43.2195 42.6875 43.2195 46.6883C43.2195 46.8029 43.2313 46.9144 43.2368 47.0266Z" fill="#ECECEC"/>
<path d="M50.6543 85.2334C49.0052 83.5837 47.9843 81.3057 47.9843 78.7942C47.9843 77.7733 48.1608 76.7938 48.4718 75.8763C47.8864 75.6484 47.3288 75.3646 46.809 75.0264C45.2442 76.2908 43.2568 77.0522 41.0928 77.0522C40.5836 77.0522 40.0873 76.9995 39.601 76.919C39.3297 77.6797 39.1748 78.4938 39.1748 79.3462C39.1748 83.347 42.4297 86.6019 46.4305 86.6019C48.0066 86.6019 49.463 86.0908 50.6543 85.2334Z" fill="#ECECEC"/>
<path d="M61.1439 76.6832C59.364 76.6832 57.7075 76.1628 56.303 75.2769C54.9643 76.0506 53.4155 76.501 51.7614 76.501C51.2522 76.501 50.7559 76.4484 50.269 76.3678C49.9977 77.1286 49.8428 77.9426 49.8428 78.7951C49.8428 82.7959 53.0977 86.0508 57.0985 86.0508C61.0993 86.0508 64.3542 82.7959 64.3542 78.7951C64.3542 77.9024 64.1845 77.0505 63.8883 76.2588C63.0216 76.5332 62.0998 76.6832 61.1439 76.6832Z" fill="#ECECEC"/>
<path d="M67.1272 64.9106C64.9056 64.9106 62.868 64.109 61.2852 62.7832C60.9036 63.1029 60.4916 63.386 60.061 63.64C60.5796 64.7848 60.8757 66.0505 60.8757 67.3868C60.8757 70.0278 59.7401 72.4024 57.9392 74.0682C58.9075 74.5477 59.9929 74.8246 61.1439 74.8246C65.1447 74.8246 68.3996 71.5697 68.3996 67.5689C68.3996 66.6155 68.2101 65.7073 67.8743 64.8722C67.6277 64.8926 67.3793 64.9106 67.1272 64.9106Z" fill="#ECECEC"/>
<path d="M45.3172 73.8253C43.6681 72.1756 42.6471 69.8976 42.6471 67.3861C42.6471 66.3893 42.8138 65.4316 43.1111 64.5327C41.9012 64.1752 40.7948 63.5755 39.8506 62.7856C38.3905 64.0079 36.5412 64.7724 34.5197 64.8845C34.0861 65.8144 33.8364 66.8465 33.8364 67.9387C33.8364 71.9395 37.0913 75.1945 41.0921 75.1945C42.6694 75.1938 44.1259 74.6827 45.3172 73.8253Z" fill="#ECECEC"/>
<path d="M51.7613 74.6422C55.7621 74.6422 59.017 71.3872 59.017 67.3864C59.017 66.3283 58.7841 65.3247 58.3746 64.4171C57.4528 64.7318 56.469 64.9103 55.4425 64.9103C53.6484 64.9103 51.9782 64.3818 50.5663 63.4829C49.1544 64.3818 47.4842 64.9103 45.6901 64.9103C45.4448 64.9103 45.2038 64.8929 44.9634 64.8731C44.6723 65.658 44.5056 66.5018 44.5056 67.3864C44.5056 71.3872 47.7605 74.6422 51.7613 74.6422Z" fill="#ECECEC"/>
<path d="M67.1271 48.5405C65.4074 48.5405 63.8276 49.1452 62.583 50.1488C63.8152 51.7031 64.5574 53.6632 64.5574 55.7962C64.5574 57.9292 63.8152 59.8894 62.583 61.4437C63.8276 62.4473 65.408 63.0519 67.1271 63.0519C71.1279 63.0519 74.3828 59.797 74.3828 55.7962C74.3828 51.7954 71.1279 48.5405 67.1271 48.5405Z" fill="#ECECEC"/>
<path d="M62.6983 55.7962C62.6983 51.7954 59.4434 48.5405 55.4426 48.5405C54.2475 48.5405 53.1219 48.836 52.127 49.3502C53.7798 51.0006 54.8045 53.2816 54.8045 55.7962C54.8045 58.3108 53.7804 60.5919 52.127 62.2423C53.1219 62.7564 54.2475 63.0519 55.4426 63.0519C59.4434 63.0519 62.6983 59.797 62.6983 55.7962Z" fill="#ECECEC"/>
<path d="M38.5521 61.4468C37.3187 59.8918 36.5759 57.9304 36.5759 55.7962C36.5759 53.662 37.3187 51.7007 38.5521 50.1457C37.3081 49.1439 35.7296 48.5405 34.0111 48.5405C30.0103 48.5405 26.7554 51.7954 26.7554 55.7962C26.7554 59.797 30.0103 63.0519 34.0111 63.0519C35.7296 63.0519 37.3081 62.4485 38.5521 61.4468Z" fill="#ECECEC"/>
<path d="M52.946 55.7962C52.946 51.7954 49.6911 48.5405 45.6903 48.5405C41.6895 48.5405 38.4346 51.7954 38.4346 55.7962C38.4346 59.797 41.6895 63.0519 45.6903 63.0519C49.6911 63.0519 52.946 59.797 52.946 55.7962Z" fill="#ECECEC"/>
<path d="M55.6909 22.4711C52.1585 21.763 49.1929 23.139 47.9848 23.8322C46.6021 20.809 44.7622 17.8601 42.3777 15.9941L41.2322 17.458C47.2235 22.1465 49.6309 35.1767 49.655 35.308L51.4845 34.979C51.4268 34.6594 50.6122 30.2478 48.7245 25.5532C49.5801 25.0254 52.5965 23.4208 56.1091 24.4895C56.0385 24.1457 55.9617 23.7907 55.8743 23.4177C55.7981 23.0962 55.743 22.7827 55.6909 22.4711Z" fill="#ECECEC"/>
<path d="M73.1303 19.7599C72.7257 19.7599 72.3292 19.833 71.9526 19.978L70.8876 20.3869L70.7024 19.2618C70.4397 17.6666 70.8201 16.0367 71.7147 14.7276C70.8282 14.5294 69.6455 14.3249 68.5236 14.3249C67.5125 14.3249 66.2072 14.4953 65.7321 15.3081L64.5761 17.285L64.0278 15.0615C63.8419 14.4476 63.7558 13.7259 63.8599 13.0283C62.2473 13.4979 59.9564 14.473 58.5804 16.417C57.3656 18.1337 57.0639 20.3472 57.6834 22.9944C58.3648 25.9061 58.5247 27.9139 58.6411 29.3803C58.8728 32.2932 58.8951 32.5751 64.4522 34.3401C64.4026 34.0886 64.3636 33.8123 64.3406 33.51C64.3041 33.0379 64.4484 32.6123 64.757 32.279C65.2501 31.7462 66.0623 31.5182 67.471 31.5182C68.4338 31.5182 69.5613 31.6229 70.7544 31.7338C71.0729 31.763 71.395 31.7933 71.7153 31.8212C71.4681 31.2556 71.2054 30.519 70.9298 29.555L70.729 28.8512L71.3659 28.4907C73.6587 27.1934 77.4018 24.7817 78.7319 23.2577C77.8169 22.1717 75.5117 19.7599 73.1303 19.7599Z" fill="#ECECEC"/>
</svg>
