<svg width="107" height="107" viewBox="0 0 107 107" fill="none" xmlns="http://www.w3.org/2000/svg">
<path d="M53.2104 106.42C23.8704 106.42 0 82.5505 0 53.2104C0 23.8704 23.8698 0 53.2104 0C82.5511 0 106.421 23.8698 106.421 53.2104C106.421 82.5505 82.5511 106.42 53.2104 106.42ZM53.2104 1.85914C24.895 1.85914 1.85853 24.8957 1.85853 53.211C1.85853 81.5258 24.895 104.562 53.2104 104.562C81.5258 104.562 104.562 81.5258 104.562 53.211C104.562 24.8957 81.5258 1.85914 53.2104 1.85914Z" fill="#ECECEC"/>
<path d="M62.7344 64.0577H58.4512V61.9718C58.4512 50.058 58.4512 38.1429 58.4512 26.2291C58.4586 25.4392 58.5094 24.65 58.6048 23.865C59.0068 20.3567 61.4291 18.1587 64.8135 18.2114C68.0523 18.2647 70.557 20.77 70.7813 24.1847C70.7813 24.5508 70.7813 24.9176 70.7813 25.2837C70.7813 46.6079 70.7813 67.9321 70.7813 89.2569C70.7813 91.1644 70.3557 92.8017 68.5182 93.6876C65.6592 95.0518 62.7524 93.026 62.7233 89.5933C62.67 84.2166 62.7233 78.8404 62.7233 73.4637C62.7345 70.4089 62.7344 67.3603 62.7344 64.0577Z" fill="#ECECEC"/>
<path d="M36.095 48.2065C32.1314 47.297 30.7777 45.6008 30.7777 41.7549C30.7777 34.8498 30.7777 27.9435 30.7777 21.0353C30.7777 20.7925 30.7777 20.5453 30.7777 20.3025C30.7418 19.2512 30.8552 18.2345 32.2082 18.2234C33.5612 18.211 33.6083 19.4042 33.6257 20.3384C33.6727 22.9676 33.6257 25.5968 33.6257 28.2198C33.6257 30.9556 33.6257 33.6963 33.6257 36.5795L36.0244 36.6922C36.0244 35.9476 36.0244 35.3039 36.0244 34.6602C36.0244 30.2599 36.0244 25.8589 36.0244 21.4554C36.0244 21.0304 36.0244 20.5992 36.0244 20.1736C36.0838 19.24 36.1427 18.0586 37.3954 18.3008C37.9864 18.4136 38.736 19.4829 38.7539 20.1686C38.8778 24.5052 38.8184 28.8474 38.8184 33.166C38.8184 34.2526 38.8184 35.346 38.8184 36.5454H41.3708C41.3708 35.8776 41.3708 35.2333 41.3708 34.5964C41.3708 29.8299 41.3708 25.0615 41.3708 20.2925C41.3708 19.3881 41.2053 18.2717 42.5522 18.2184C43.8996 18.1651 43.9938 19.235 43.9938 20.2684C43.9938 25.6389 43.9938 31.0101 43.9938 36.5219H46.5344C46.5344 34.3239 46.5344 32.202 46.5344 30.0759C46.5344 26.6556 46.4749 23.2284 46.5995 19.8081C46.5995 19.253 47.4265 18.727 47.8694 18.1831C48.3124 18.7091 49.1401 19.235 49.1401 19.7666C49.2169 27.6486 49.2286 35.5356 49.1401 43.3984C49.1401 45.8152 47.2673 47.4222 44.0421 48.1253C44.0421 48.7814 44.0421 49.4963 44.0421 50.2106C44.0421 63.2916 44.0421 76.3701 44.0421 89.4467C44.0421 92.4005 42.5528 94.1321 40.1125 94.173C38.1982 94.2646 36.5299 92.8807 36.2666 90.9831C36.1328 90.078 36.0727 89.163 36.0888 88.2479C36.0888 75.6434 36.0888 63.0537 36.0888 50.477L36.095 48.2065Z" fill="#ECECEC"/>
</svg>
