<svg width="107" height="107" viewBox="0 0 107 107" fill="none" xmlns="http://www.w3.org/2000/svg">
<path d="M53.1733 0C23.8537 0 0 23.8537 0 53.1733C0 82.4935 23.853 106.347 53.1733 106.347C82.4935 106.347 106.347 82.4935 106.347 53.1733C106.347 23.8537 82.4935 0 53.1733 0ZM53.1733 1.85853C70.1485 1.85853 85.2181 10.1501 94.564 22.8891C93.5425 24.2204 90.4752 28.1072 83.7721 35.8461L62.5142 18.9806L40.1747 38.8737L31.1633 29.2068L1.97189 56.4108C1.90499 55.3397 1.85916 54.2611 1.85916 53.1726C1.85916 24.8783 24.8783 1.85853 53.1733 1.85853ZM64.47 57.4745C62.1425 57.4448 59.9098 57.5377 57.7775 57.7576L41.4422 40.2341L62.1642 21.7808L72.5094 48.5951C70.0822 51.2992 67.4059 54.2574 64.47 57.4745ZM55.5069 58.0476C50.5001 58.8021 46.0811 60.2952 42.2686 62.5167L33.2547 34.1772L55.5069 58.0476ZM73.9021 47.0407L64.6435 23.0427L82.553 37.2512C80.1232 40.0408 77.2605 43.2877 73.9021 47.0407ZM2.16952 58.7674L30.6763 32.2009L40.6424 63.534C38.6953 64.838 36.9179 66.3441 35.3258 68.0657C26.1836 77.9518 25.6632 91.6306 25.8033 96.5471C12.9199 88.3875 3.90105 74.6604 2.16952 58.7674ZM27.7194 97.7018C27.5503 94.7771 27.1792 79.6028 36.6998 69.3183C38.0708 67.8371 39.5948 66.5287 41.2526 65.3745L43.0009 64.8182L42.8485 64.3406C48.2072 61.1117 54.8899 59.4247 62.8277 59.3293C55.5206 67.8674 52.2204 76.4291 53.024 84.8018C53.9433 94.3813 59.942 100.941 62.8097 103.569C59.6862 104.165 56.4678 104.489 53.1733 104.489C43.914 104.489 35.2273 102.011 27.7194 97.7018ZM65.0852 103.077C63.3828 101.67 55.8514 94.9035 54.872 84.6023C54.0808 76.2761 57.6771 67.6748 65.5616 59.0369C85.4653 37.2314 93.3677 27.4512 95.6897 24.4701C101.242 32.6674 104.488 42.548 104.488 53.1726C104.488 77.367 87.6528 97.6907 65.0852 103.077Z" fill="#ECECEC"/>
</svg>
