<svg width="109" height="109" viewBox="0 0 109 109" fill="none" xmlns="http://www.w3.org/2000/svg">
<path d="M54.017 0C24.2322 0 0 24.2322 0 54.017C0 83.8019 24.2322 108.034 54.017 108.034C83.8019 108.034 108.034 83.8019 108.034 54.017C108.034 24.2322 83.8019 0 54.017 0ZM9.82854 26.3546H47.5642C50.5955 26.3546 53.0611 28.8203 53.0611 31.8515V50.8234C52.9558 50.8148 52.8505 50.8042 52.7464 50.8042C51.9603 50.8042 50.7863 51.0527 50.0633 52.3635C48.0586 48.9445 43.8633 42.6434 40.1803 42.6434C39.417 42.6434 38.7151 42.8943 38.0944 43.3887C37.2425 44.0683 34.9534 45.9101 42.3938 57.6994H2.0029C1.91679 56.4814 1.85853 55.2573 1.85853 54.0182C1.85791 43.8601 4.78696 34.3798 9.82854 26.3546ZM65.1639 51.236C65.1484 50.7968 65.1912 50.2101 65.4836 49.9066C65.68 49.7034 66.0232 49.5999 66.5033 49.5999C68.4077 49.5999 71.4823 51.2267 72.6959 51.9646C74.5352 54.5009 79.018 61.2492 79.3451 64.3591C79.7769 68.4572 80.0371 70.9303 82.3962 73.549C82.9005 74.109 83.1396 74.6461 83.1062 75.1448C83.0659 75.7519 82.6298 76.1968 82.5251 76.2965L66.7344 86.537C66.6693 86.542 66.5875 86.5463 66.4934 86.5463H66.4927C65.5678 86.5463 64.9483 86.2081 64.6509 85.5408C63.5445 83.0566 58.6844 82.1763 57.5805 82.1763C57.5786 82.1763 57.5761 82.1763 57.5743 82.1763C56.4907 81.9861 51.3389 78.4264 50.8674 77.3819C50.7045 75.4719 45.6375 70.084 42.6571 69.8313C41.8746 69.7656 41.1548 68.9689 40.9838 67.9796C40.8667 67.3037 40.8673 65.6068 43.398 64.4539C43.7393 64.2984 44.085 64.2228 44.4555 64.2228C45.5533 64.2228 46.8741 64.9278 48.2791 66.2616C50.6227 69.4596 52.4429 71.7431 52.4608 71.766L53.9997 70.7351C53.9247 70.6001 52.1461 67.422 49.6829 65.0331C39.2857 50.8247 38.2331 45.6555 39.2535 44.8414C39.544 44.6097 39.8383 44.5013 40.1803 44.5013C42.9278 44.5013 47.3827 51.0973 49.5454 55.2548L51.0663 58.1789L51.2968 54.8905C51.4529 52.6622 52.3598 52.6621 52.7464 52.6621C54.0604 52.6621 55.9059 53.9018 56.5062 54.3788L57.8444 55.4438L58.0104 53.7426C58.2941 50.8234 59.7196 50.8234 60.2561 50.8234C61.8619 50.8234 63.7024 52.0303 63.7198 52.042L65.2289 53.0481L65.1639 51.236ZM54.017 106.176C27.1278 106.176 4.93131 85.7224 2.15528 59.5573H43.5919C44.2027 60.4841 44.8662 61.4635 45.5898 62.5025C44.5546 62.2547 43.5491 62.3426 42.6273 62.7627C39.5967 64.1435 38.8458 66.5268 39.1525 68.2974C39.4691 70.1224 40.8766 71.5473 42.5009 71.6849C44.6308 71.8645 48.8441 76.5573 49.0132 77.4742C49.0132 79.5316 56.1543 84.0323 57.5197 84.0323C58.6225 84.0323 62.3519 84.9473 62.9535 86.2979C63.5494 87.6373 64.8399 88.4055 66.4927 88.4055C66.4927 88.4055 66.4928 88.4055 66.4934 88.4055C66.8948 88.4055 67.173 88.359 67.225 88.3491L67.4084 88.3156L83.5931 77.8199L83.6724 77.7623C83.7914 77.6656 84.8433 76.7741 84.9585 75.3059C85.0397 74.275 84.6425 73.2652 83.7777 72.305C81.8238 70.1355 81.6138 68.14 81.195 64.164C80.7402 59.8466 74.3618 51.0904 74.0898 50.7206L73.9851 50.5775L73.8346 50.4827C73.6561 50.3706 69.4348 47.7414 66.5039 47.7414C65.5003 47.7414 64.7079 48.0362 64.1473 48.6161C63.8394 48.9358 63.6151 49.3292 63.4757 49.7951C62.6152 49.3917 61.4282 48.9655 60.2574 48.9655C59.0852 48.9655 57.1883 49.4072 56.4319 52.0748C55.9982 51.8109 55.4778 51.5328 54.9209 51.3029V31.8521C54.9209 27.7962 51.6214 24.4967 47.5654 24.4967H11.0496C20.4637 10.8359 36.2092 1.85914 54.0183 1.85914C82.7791 1.85914 106.177 25.2575 106.177 54.0176C106.177 82.7778 82.7778 106.176 54.017 106.176Z" fill="#ECECEC"/>
<path d="M48.444 34.3311L46.8881 33.316L43.6385 38.2969L45.1944 39.312L48.444 34.3311Z" fill="#ECECEC"/>
<path d="M31.4525 40.7389L25.5671 39.8976L25.3041 41.738L31.1895 42.5793L31.4525 40.7389Z" fill="#ECECEC"/>
<path d="M24.936 48.9679L25.985 50.5021L30.8955 47.1447L29.8465 45.6105L24.936 48.9679Z" fill="#ECECEC"/>
<path d="M35.8766 38.5785L33.3005 33.2177L31.626 34.0223L34.202 39.3832L35.8766 38.5785Z" fill="#ECECEC"/>
<path d="M40.5459 37.7331L40.2241 31.7941L38.3684 31.8947L38.6902 37.8337L40.5459 37.7331Z" fill="#ECECEC"/>
</svg>
