<svg width="106" height="106" viewBox="0 0 106 106" fill="none" xmlns="http://www.w3.org/2000/svg">
<path d="M73.8079 40.7346H65.6285V40.6974H56.7577L56.5019 41.2147C56.4201 41.3801 55.6674 42.9283 54.9234 45.2074C53.8095 39.9874 51.4801 39.9918 50.6958 39.4652C49.6488 38.7639 49.8533 36.2258 49.8533 36.2258V24.3646C51.2342 24.2488 50.4288 19.875 50.4288 19.875H47.1119H46.7656H43.4488C43.4488 19.875 42.6428 24.2494 44.0243 24.3646V36.2258C44.0243 36.2258 44.2486 38.7589 43.2127 39.4491C42.1769 40.1398 38.3787 39.91 38.3787 52.3473V84.4634C38.3787 84.4634 36.4217 89.4188 44.484 89.4188C46.5977 89.4188 47.7798 89.3631 48.3813 89.2813L49.424 89.4188C57.4869 89.4188 55.5299 84.4634 55.5299 84.4634V61.845C57.0848 64.2109 59.4594 65.9369 62.6443 66.9702L63.0867 83.6524C63.0656 83.8977 62.8122 85.6788 59.9228 85.8504C55.4815 86.1113 54.9754 88.0931 54.9184 88.4883L54.7672 89.5489H64.9377V89.5805H75.799L75.6479 88.5199C75.5909 88.1247 75.0847 86.1435 70.6435 85.8814C67.798 85.7135 67.5075 83.9609 67.4796 83.6797L67.9213 67.0018C71.8261 65.7362 74.5334 63.4477 75.9756 60.1903C79.4554 52.33 74.2862 41.7004 74.0644 41.2519L73.8079 40.7346ZM70.3269 87.7214H65.6285V87.6898H60.2462C63.8263 87.3881 64.8876 84.9707 64.9452 83.7113L64.9471 83.6778L64.5072 67.0811C64.869 67.1009 65.2401 67.1109 65.6291 67.0972C65.7772 67.0923 65.9166 67.0768 66.0603 67.0669L65.6211 83.6754L65.6198 83.7094L65.6217 83.7429C65.6781 85.0042 66.7405 87.4234 70.3269 87.7214ZM75.2743 55.1215H55.5305V52.3634C55.5305 51.8089 55.5199 51.2898 55.5063 50.7843C56.0595 47.0598 57.3871 43.7863 57.9311 42.5559H64.9384V42.5931H72.6358C73.3829 44.2856 75.6156 49.842 75.2743 55.1215Z" fill="#ECECEC"/>
<path d="M52.7984 0C23.6858 0 0 23.6852 0 52.7985C0 81.9118 23.6851 105.598 52.7984 105.598C81.9117 105.598 105.597 81.9124 105.597 52.7985C105.597 23.6852 81.9117 0 52.7984 0ZM52.7984 103.738C24.7104 103.738 1.85853 80.8865 1.85853 52.7978C1.85853 24.7098 24.7104 1.85793 52.7984 1.85793C80.8865 1.85793 103.738 24.7098 103.738 52.7978C103.738 80.8865 80.8865 103.738 52.7984 103.738Z" fill="#ECECEC"/>
</svg>
